<svg xmlns="http://www.w3.org/2000/svg" width="46" height="46" viewBox="0 0 46 46">
    <g fill="none" fill-rule="evenodd">
        <rect width="32" height="32" x="6.627" y="6.627" fill="#E86F52" rx="3" transform="rotate(-45 22.627 22.627)"/>
        <path fill="#FFF" d="M19.066 22.35c-.95 0-1.723-.326-2.318-.979-.595-.652-.893-1.46-.893-2.422 0-.963.304-1.77.912-2.423.608-.652 1.387-.978 2.337-.978.95 0 1.723.326 2.318.978.595.653.893 1.46.893 2.423 0 .95-.304 1.754-.912 2.413-.608.659-1.387.988-2.337.988zM17.185 29l9.709-13.3h2.261L19.446 29h-2.261zm10.051.152c-.95 0-1.723-.326-2.318-.979-.595-.652-.893-1.46-.893-2.422 0-.963.304-1.77.912-2.423.608-.652 1.387-.978 2.337-.978.95 0 1.723.326 2.318.978.595.653.893 1.46.893 2.423 0 .95-.304 1.754-.912 2.413-.608.659-1.387.988-2.337.988zm-8.132-8.531c.38 0 .678-.161.893-.484.215-.324.323-.72.323-1.188 0-.456-.117-.849-.352-1.178-.234-.33-.535-.494-.902-.494-.38 0-.678.158-.893.475-.215.317-.323.716-.323 1.197 0 .456.117.849.351 1.178.235.33.536.494.903.494zm8.17 6.802c.38 0 .678-.161.893-.484.215-.324.323-.72.323-1.188 0-.456-.117-.849-.351-1.178-.235-.33-.536-.494-.903-.494-.38 0-.678.158-.893.475-.215.317-.323.716-.323 1.197 0 .456.117.849.352 1.178.234.33.535.494.902.494z"/>
    </g>
</svg>
