<svg xmlns="http://www.w3.org/2000/svg" xmlns:xlink="http://www.w3.org/1999/xlink" width="872" height="130" viewBox="0 0 872 130"><defs><path id="ijgba" d="M429 394V264h872v130z"/><path id="ijgbc" d="M490.56 176.6a15 15 0 0 1 21.21 0l141.95 141.96a15 15 0 0 1 0 21.21L511.77 481.72a15 15 0 0 1-21.21 0L348.6 339.77a15 15 0 0 1 0-21.21z"/><path id="ijgbd" d="M515.66 342.33a1.19 1.19 0 0 0 0 2.37h4.76c.66 0 1.2-.53 1.2-1.18 0-.66-.54-1.19-1.2-1.19z"/><path id="ijgbe" d="M522.8 321.03h-7.14a1.19 1.19 0 0 0 0 2.37h7.15c.66 0 1.19-.53 1.19-1.18 0-.66-.53-1.19-1.2-1.19z"/><path id="ijgbf" d="M525.2 330.5h2.37c.66 0 1.2-.53 1.2-1.18 0-.66-.54-1.19-1.2-1.19h-2.38a1.19 1.19 0 0 0 0 2.37z"/><path id="ijgbg" d="M541.87 363.63h-42.9a3.57 3.57 0 0 1-3.57-3.55v-52.06c0-.66-.53-1.19-1.19-1.19-.66 0-1.2.53-1.2 1.19v52.06a5.94 5.94 0 0 0 5.97 5.92h42.9c.65 0 1.18-.53 1.18-1.18 0-.66-.53-1.19-1.19-1.19z"/><path id="ijgbh" d="M553.79 309.2h-9.53a3.57 3.57 0 0 1-3.58-3.55v-3.55c0-.65-.53-1.18-1.19-1.18-.66 0-1.2.53-1.2 1.18v3.55a5.94 5.94 0 0 0 5.97 5.92h8.34v39.05c0 1.95-1.6 3.55-3.58 3.55h-40.51a3.57 3.57 0 0 1-3.58-3.55v-49.7c0-1.96 1.6-3.55 3.58-3.55H539l9.18 9.12a1.2 1.2 0 0 0 1.69 0c.46-.47.46-1.21 0-1.68l-9.54-9.46a1.2 1.2 0 0 0-.84-.35h-30.98a5.94 5.94 0 0 0-5.96 5.92v49.7a5.94 5.94 0 0 0 5.96 5.91h40.51a5.94 5.94 0 0 0 5.96-5.91v-40.24c0-.65-.53-1.18-1.19-1.18z"/><path id="ijgbi" d="M546.64 358.9h-42.9a3.57 3.57 0 0 1-3.57-3.55v-52.07c0-.65-.53-1.18-1.2-1.18-.65 0-1.18.53-1.18 1.18v52.07a5.94 5.94 0 0 0 5.95 5.92h42.9a1.19 1.19 0 0 0 0-2.37z"/><path id="ijgbj" d="M531.15 336.42c0-.66-.53-1.19-1.2-1.19h-14.3a1.19 1.19 0 0 0 0 2.37h14.3c.67 0 1.2-.53 1.2-1.18z"/><path id="ijgbk" d="M515.66 330.5h4.76c.66 0 1.2-.53 1.2-1.18 0-.66-.54-1.19-1.2-1.19h-4.76a1.19 1.19 0 0 0 0 2.37z"/><path id="ijgbl" d="M529.96 311.57h-14.3c-.66 0-1.2.53-1.2 1.18 0 .65.54 1.18 1.2 1.18h14.3c.66 0 1.19-.53 1.19-1.18 0-.65-.53-1.18-1.2-1.18z"/><path id="ijgbm" d="M541.87 328.13h-9.53a1.19 1.19 0 0 0 0 2.37h9.53c.66 0 1.2-.53 1.2-1.18 0-.66-.54-1.19-1.2-1.19z"/><path id="ijgbn" d="M539.5 321.03h-11.92a1.19 1.19 0 0 0 0 2.37h11.91c.66 0 1.2-.53 1.2-1.18 0-.66-.54-1.19-1.2-1.19z"/><path id="ijgbo" d="M525.2 344.7h16.67c.66 0 1.2-.53 1.2-1.18 0-.66-.54-1.19-1.2-1.19H525.2a1.19 1.19 0 0 0 0 2.37z"/><path id="ijgbp" d="M539.5 337.6c.65 0 1.18-.53 1.18-1.18 0-.66-.53-1.19-1.19-1.19h-4.77a1.19 1.19 0 0 0 0 2.37z"/><clipPath id="ijgbb"><use xlink:href="#ijgba"/></clipPath></defs><g><g transform="translate(-429 -264)"><g><use fill="#eee" xlink:href="#ijgba"/></g><g clip-path="url(#ijgbb)"><g fill="#aa6e4f" font-family="'Gotham Pro Medium','GothamPro-Medium'" font-size="14" style="line-height:22px"><text dominant-baseline="text-before-edge" font-family="Gotham Pro Medium, Helvetica, Arial, sans-serif" transform="translate(701 334)"><tspan>Фирменная гарантия в течение двух лет с момента продажи</tspan></text></g></g><g clip-path="url(#ijgbb)"><use fill="#aa6e4f" xlink:href="#ijgbc"/></g><g clip-path="url(#ijgbb)"><g fill="#aa6e4f" font-family="'Gotham Pro Medium','GothamPro-Medium'" font-size="36" style="line-height:41px"><text dominant-baseline="text-before-edge" font-family="Gotham Pro Medium, Helvetica, Arial, sans-serif" transform="translate(696 283)"><tspan>Гарантия от производителя</tspan></text></g></g><g clip-path="url(#ijgbb)"><g><g><use fill="#fff" xlink:href="#ijgbd"/></g><g><use fill="#fff" xlink:href="#ijgbe"/></g><g><use fill="#fff" xlink:href="#ijgbf"/></g><g><use fill="#fff" xlink:href="#ijgbg"/></g><g><use fill="#fff" xlink:href="#ijgbh"/></g><g><use fill="#fff" xlink:href="#ijgbi"/></g><g><use fill="#fff" xlink:href="#ijgbj"/></g><g><use fill="#fff" xlink:href="#ijgbk"/></g><g><use fill="#fff" xlink:href="#ijgbl"/></g><g><use fill="#fff" xlink:href="#ijgbm"/></g><g><use fill="#fff" xlink:href="#ijgbn"/></g><g><use fill="#fff" xlink:href="#ijgbo"/></g><g><use fill="#fff" xlink:href="#ijgbp"/></g></g></g></g></g></svg>