<svg xmlns="http://www.w3.org/2000/svg" xmlns:xlink="http://www.w3.org/1999/xlink" width="872" height="130"><defs><path id="a" d="M429 394V264h872v130z"/><path id="c" d="M490.56 176.6a15 15 0 0 1 21.21 0l141.95 141.96a15 15 0 0 1 0 21.21L511.77 481.72a15 15 0 0 1-21.21 0L348.6 339.77a15 15 0 0 1 0-21.21z"/><path id="d" d="M515.66 342.33a1.19 1.19 0 0 0 0 2.37h4.76c.66 0 1.2-.53 1.2-1.18 0-.66-.54-1.19-1.2-1.19z"/><path id="e" d="M522.8 321.03h-7.14a1.19 1.19 0 0 0 0 2.37h7.15a1.184 1.184 0 1 0-.01-2.37z"/><path id="f" d="M525.2 330.5h2.37c.66 0 1.2-.53 1.2-1.18 0-.66-.54-1.19-1.2-1.19h-2.38a1.19 1.19 0 0 0 0 2.37z"/><path id="g" d="M541.87 363.63h-42.9a3.57 3.57 0 0 1-3.57-3.55v-52.06c0-.66-.53-1.19-1.19-1.19-.66 0-1.2.53-1.2 1.19v52.06a5.94 5.94 0 0 0 5.97 5.92h42.9c.65 0 1.18-.53 1.18-1.18 0-.66-.53-1.19-1.19-1.19z"/><path id="h" d="M553.79 309.2h-9.53a3.57 3.57 0 0 1-3.58-3.55v-3.55c0-.65-.53-1.18-1.19-1.18-.66 0-1.2.53-1.2 1.18v3.55a5.94 5.94 0 0 0 5.97 5.92h8.34v39.05c0 1.95-1.6 3.55-3.58 3.55h-40.51a3.57 3.57 0 0 1-3.58-3.55v-49.7c0-1.96 1.6-3.55 3.58-3.55H539l9.18 9.12a1.2 1.2 0 0 0 1.69 0c.46-.47.46-1.21 0-1.68l-9.54-9.46a1.2 1.2 0 0 0-.84-.35h-30.98a5.94 5.94 0 0 0-5.96 5.92v49.7a5.94 5.94 0 0 0 5.96 5.91h40.51a5.94 5.94 0 0 0 5.96-5.91v-40.24c0-.65-.53-1.18-1.19-1.18z"/><path id="i" d="M546.64 358.9h-42.9a3.57 3.57 0 0 1-3.57-3.55v-52.07c0-.65-.53-1.18-1.2-1.18-.65 0-1.18.53-1.18 1.18v52.07a5.94 5.94 0 0 0 5.95 5.92h42.9a1.19 1.19 0 0 0 0-2.37z"/><path id="j" d="M531.15 336.42c0-.66-.53-1.19-1.2-1.19h-14.3a1.19 1.19 0 0 0 0 2.37h14.3c.67 0 1.2-.53 1.2-1.18z"/><path id="k" d="M515.66 330.5h4.76c.66 0 1.2-.53 1.2-1.18 0-.66-.54-1.19-1.2-1.19h-4.76a1.19 1.19 0 0 0 0 2.37z"/><path id="l" d="M529.96 311.57h-14.3c-.66 0-1.2.53-1.2 1.18 0 .65.54 1.18 1.2 1.18h14.3c.66 0 1.19-.53 1.19-1.18 0-.65-.53-1.18-1.2-1.18z"/><path id="m" d="M541.87 328.13h-9.53a1.19 1.19 0 0 0 0 2.37h9.53c.66 0 1.2-.53 1.2-1.18 0-.66-.54-1.19-1.2-1.19z"/><path id="n" d="M539.5 321.03h-11.92a1.19 1.19 0 0 0 0 2.37h11.91c.66 0 1.2-.53 1.2-1.18 0-.66-.54-1.19-1.2-1.19z"/><path id="o" d="M525.2 344.7h16.67c.66 0 1.2-.53 1.2-1.18 0-.66-.54-1.19-1.2-1.19H525.2a1.19 1.19 0 0 0 0 2.37z"/><path id="p" d="M539.5 337.6c.65 0 1.18-.53 1.18-1.18 0-.66-.53-1.19-1.19-1.19h-4.77a1.19 1.19 0 0 0 0 2.37z"/><clipPath id="b"><use xlink:href="#a"/></clipPath></defs><use fill="#eee" xlink:href="#a" transform="translate(-429 -264)"/><g clip-path="url(#b)" transform="translate(-429 -264)"><text dominant-baseline="text-before-edge" font-family="Gotham Pro Medium, Helvetica, Arial, sans-serif" transform="translate(701 334)" fill="#aa6e4f" font-size="14"><tspan>Фирменная гарантия в течение двух лет с момента продажи</tspan></text></g><g clip-path="url(#b)" transform="translate(-429 -264)"><use fill="#aa6e4f" xlink:href="#c"/></g><g clip-path="url(#b)" transform="translate(-429 -264)"><text dominant-baseline="text-before-edge" font-family="Gotham Pro Medium, Helvetica, Arial, sans-serif" transform="translate(696 283)" fill="#aa6e4f" font-size="36"><tspan>Гарантия от производителя</tspan></text></g><g clip-path="url(#b)" transform="translate(-429 -264)" fill="#fff"><use xlink:href="#d"/><use xlink:href="#e"/><use xlink:href="#f"/><use xlink:href="#g"/><use xlink:href="#h"/><use xlink:href="#i"/><use xlink:href="#j"/><use xlink:href="#k"/><use xlink:href="#l"/><use xlink:href="#m"/><use xlink:href="#n"/><use xlink:href="#o"/><use xlink:href="#p"/></g></svg>